<svg width="24" height="24" viewBox="0 0 24 24" fill="none" xmlns="http://www.w3.org/2000/svg">
<rect width="24" height="24" rx="4" fill="#F67669"/>
<path d="M9.22572 18.5377C8.91101 18.5237 8.60265 18.4453 8.32003 18.3074C8.03741 18.1695 7.78667 17.9751 7.58359 17.7365C7.38051 17.498 7.22947 17.2203 7.14001 16.921C7.05055 16.6218 7.0246 16.3074 7.06378 15.9978L7.22735 14.722C7.25858 14.4773 7.22934 14.2288 7.14218 13.9978C7.05502 13.7667 6.91253 13.5601 6.72695 13.3957L5.75972 12.5394C5.44298 12.2591 5.21172 11.8966 5.09212 11.4929C4.97251 11.0892 4.96931 10.6603 5.08291 10.2549C5.1965 9.84945 5.42236 9.4836 5.73491 9.1987C6.04745 8.91381 6.43423 8.72124 6.85149 8.64278L8.12661 8.40284C8.37105 8.35689 8.60055 8.25277 8.79535 8.09943C8.99015 7.94608 9.14441 7.74812 9.24483 7.5226L9.76821 6.34508C9.93958 5.96015 10.2162 5.63039 10.5669 5.39307C10.9175 5.15574 11.3282 5.02031 11.7524 5.00209C12.1767 4.98386 12.5976 5.08356 12.9677 5.28994C13.3377 5.49631 13.6421 5.80112 13.8465 6.16991L14.4704 7.29712C14.5901 7.51355 14.7611 7.69787 14.9688 7.83419C15.1764 7.97051 15.4144 8.05473 15.6622 8.07958L16.9531 8.20879C17.3757 8.25113 17.7779 8.40977 18.1141 8.66676C18.4504 8.92375 18.7074 9.26885 18.8561 9.663C19.0047 10.0572 19.0391 10.4846 18.9552 10.8971C18.8714 11.3096 18.6727 11.6906 18.3817 11.9971L17.4927 12.9335C17.322 13.1129 17.198 13.3308 17.1314 13.5684C17.0648 13.8059 17.0576 14.0559 17.1104 14.2969L17.3847 15.5543C17.4745 15.9654 17.4464 16.3933 17.3036 16.7894C17.1607 17.1856 16.9089 17.5342 16.5765 17.796C16.2442 18.0577 15.8445 18.2222 15.4227 18.2707C15.001 18.3192 14.5739 18.2499 14.1899 18.0705L13.0159 17.5225C12.7909 17.4169 12.5432 17.3672 12.2944 17.3778C12.0456 17.3884 11.8032 17.4589 11.5881 17.5833L10.4664 18.2304C10.091 18.4481 9.66043 18.5547 9.22572 18.5377Z" fill="white"/>
</svg>
