<svg width="64" height="64" viewBox="0 0 64 64" fill="none" xmlns="http://www.w3.org/2000/svg">
<g clip-path="url(#clip0_2103_208)">
<rect x="1.5" y="1.5" width="61" height="61" rx="6.5" fill="#002733"/>
<path d="M52.6666 26.998V23.668C52.6666 19.9875 49.6817 17 46.0003 17V20.335C47.8398 20.335 49.3337 21.828 49.3337 23.668V26.998C49.3337 29.001 50.2352 30.7775 51.6336 32C50.2352 33.222 49.3337 34.996 49.3337 37V40.333C49.3337 42.174 47.8398 43.6665 45.9988 43.6665V47C49.6782 47 52.6666 44.0165 52.6666 40.333V37C52.6666 35.159 54.1606 33.6665 56 33.6665V30.3315C54.1576 30.3315 52.6666 28.8385 52.6666 26.998Z" fill="white"/>
<path d="M14.6683 27V23.6665C14.6683 21.8255 16.1622 20.333 18.0032 20.333V17C14.3218 17 11.3349 19.9835 11.3349 23.6665L11.3334 27C11.3334 28.841 9.84094 30.333 8 30.333V33.6665L8.0015 33.668C9.84244 33.668 11.3349 35.1605 11.3349 37.0015V40.3315C11.3349 44.0115 14.3183 47 18.0012 47V43.665C16.1602 43.665 14.6683 42.1725 14.6683 40.3315V37.0015C14.6683 34.998 13.7663 33.222 12.3684 32C13.7663 30.7775 14.6683 29.0025 14.6683 27Z" fill="white"/>
<path fill-rule="evenodd" clip-rule="evenodd" d="M37.3765 33.5442C37.0349 33.8473 36.8797 34.2841 36.9597 34.7125L37.4757 37.4537C37.6365 38.307 36.8925 39 36.0485 39C35.8261 39 35.5965 38.9517 35.3741 38.8453L32.674 37.551C32.4628 37.4502 32.2316 37.3998 31.9996 37.3998C31.7684 37.3998 31.5372 37.4502 31.326 37.551L28.626 38.8453C28.4035 38.9517 28.1739 39 27.9515 39C27.1075 39 26.3635 38.307 26.5243 37.4537L27.0403 34.7125C27.1203 34.2841 26.9651 33.8473 26.6235 33.5442L24.4387 31.6031C23.5795 30.8394 24.0539 29.5087 25.2411 29.3512L28.2603 28.9515C28.7324 28.8892 29.1404 28.619 29.3508 28.2291L30.7012 25.7357C30.9668 25.245 31.4836 25 31.9996 25C32.5164 25 33.0332 25.245 33.2988 25.7357L34.6492 28.2291C34.8596 28.619 35.2677 28.8892 35.7397 28.9515L38.7589 29.3512C39.9461 29.5087 40.4205 30.8394 39.5613 31.6031L37.3765 33.5442Z" fill="#42D3FF"/>
<rect x="1.5" y="1.5" width="61" height="61" rx="6.5" stroke="#42D3FF" stroke-width="3"/>
</g>
<defs>
<clipPath id="clip0_2103_208">
<rect width="64" height="64" fill="white"/>
</clipPath>
</defs>
</svg>
