<svg width="24" height="24" viewBox="0 0 24 24" fill="none" xmlns="http://www.w3.org/2000/svg">
<rect x="0.5" y="0.5" width="23" height="23" rx="3.5" fill="#121214" stroke="#42D3FF"/>
<path d="M11.6486 20C10.5964 20 9.66883 19.8995 8.86584 19.6985C8.0767 19.5119 7.3637 19.2176 6.72684 18.8156L7.37062 16.1023C7.74442 16.332 8.15284 16.5258 8.59587 16.6837C9.0389 16.8416 9.49577 16.9565 9.96649 17.0283C10.4511 17.1144 10.9079 17.1575 11.3371 17.1575C12.2232 17.1575 12.8808 16.9421 13.31 16.5114C13.7392 16.0951 13.9537 15.4993 13.9537 14.7241V12.8075H14.1614C13.9399 13.4392 13.5038 13.9489 12.8531 14.3365C12.2024 14.7097 11.4825 14.8964 10.6933 14.8964C9.7519 14.8964 8.92814 14.681 8.22207 14.2503C7.52983 13.8053 6.98297 13.1736 6.58147 12.3553C6.19383 11.537 6 10.568 6 9.44818C6 8.3284 6.19383 7.35935 6.58147 6.54105C6.98297 5.72275 7.52983 5.09825 8.22207 4.66756C8.92814 4.22252 9.7519 4 10.6933 4C11.5102 4 12.2301 4.18663 12.8531 4.55989C13.4761 4.93315 13.8984 5.42844 14.1199 6.04576L13.9537 6.00269L14.1822 4.23688H17.7333C17.678 4.72499 17.6364 5.22028 17.6087 5.72275C17.581 6.22521 17.5672 6.7205 17.5672 7.20861V14.2934C17.5672 16.131 17.0619 17.5379 16.0512 18.5141C15.0406 19.5047 13.573 20 11.6486 20ZM11.8355 12.0538C12.4724 12.0538 12.9777 11.8313 13.3515 11.3863C13.7253 10.9412 13.9122 10.2952 13.9122 9.44818C13.9122 8.58681 13.7253 7.94078 13.3515 7.51009C12.9777 7.06505 12.4724 6.84253 11.8355 6.84253C11.1848 6.84253 10.6726 7.06505 10.2988 7.51009C9.92496 7.94078 9.73805 8.58681 9.73805 9.44818C9.73805 10.2952 9.92496 10.9412 10.2988 11.3863C10.6726 11.8313 11.1848 12.0538 11.8355 12.0538Z" fill="#42D3FF"/>
</svg>
