<svg width="24" height="24" viewBox="0 0 24 24" fill="none" xmlns="http://www.w3.org/2000/svg">
<rect x="0.75" y="0.75" width="22.5" height="22.5" rx="3.25" fill="#121214" stroke="#42D3FF" stroke-width="1.5"/>
<path d="M18.1994 10.53C18.4253 10.484 18.6283 10.3615 18.7742 10.183C18.9201 10.0045 18.9999 9.78114 19 9.55062V8C19 7.73478 18.8946 7.48043 18.7071 7.29289C18.5196 7.10536 18.2652 7 18 7H6C5.73479 7 5.48043 7.10536 5.2929 7.29289C5.10536 7.48043 5 7.73478 5 8V9.55062C5.00013 9.78114 5.07989 10.0045 5.22578 10.183C5.37167 10.3615 5.57474 10.484 5.80063 10.53C6.13838 10.6 6.44167 10.7844 6.65941 11.0519C6.87716 11.3194 6.99604 11.6538 6.99604 11.9988C6.99604 12.3437 6.87716 12.6781 6.65941 12.9456C6.44167 13.2131 6.13838 13.3975 5.80063 13.4675C5.57432 13.5135 5.37093 13.6365 5.22499 13.8155C5.07905 13.9945 4.99955 14.2184 5 14.4494V16C5 16.2652 5.10536 16.5196 5.2929 16.7071C5.48043 16.8946 5.73479 17 6 17H18C18.2652 17 18.5196 16.8946 18.7071 16.7071C18.8946 16.5196 19 16.2652 19 16V14.4494C18.9999 14.2189 18.9201 13.9955 18.7742 13.817C18.6283 13.6385 18.4253 13.516 18.1994 13.47C17.8616 13.4 17.5583 13.2156 17.3406 12.9481C17.1228 12.6806 17.004 12.3462 17.004 12.0013C17.004 11.6563 17.1228 11.3219 17.3406 11.0544C17.5583 10.7869 17.8616 10.6025 18.1994 10.5325V10.53ZM6 14.45C6.56481 14.3349 7.07251 14.0282 7.43715 13.5818C7.80179 13.1354 8.00097 12.5767 8.00097 12.0003C8.00097 11.4239 7.80179 10.8652 7.43715 10.4188C7.07251 9.97238 6.56481 9.66568 6 9.55062V8H9.5V16H6V14.45ZM18 14.45V16H10.5V8H18V9.55C17.4352 9.66506 16.9275 9.97175 16.5629 10.4182C16.1982 10.8646 15.999 11.4233 15.999 11.9997C15.999 12.5761 16.1982 13.1348 16.5629 13.5812C16.9275 14.0276 17.4352 14.3343 18 14.4494V14.45Z" fill="#42D3FF"/>
</svg>
