<svg width="40" height="40" viewBox="0 0 40 40" fill="none" xmlns="http://www.w3.org/2000/svg">
<rect x="1" y="1" width="38" height="38" rx="7" fill="url(#paint0_linear_2233_4)"/>
<path d="M24.6235 16.1H29C29.2387 16.1 29.4676 16.1948 29.6364 16.3636C29.8052 16.5324 29.9 16.7613 29.9 17C29.9 17.2387 29.8052 17.4676 29.6364 17.6364C29.4676 17.8052 29.2387 17.9 29 17.9H24.2971L23.5332 22.1H27.5C27.7387 22.1 27.9676 22.1948 28.1364 22.3636C28.3052 22.5324 28.4 22.7613 28.4 23C28.4 23.2387 28.3052 23.4676 28.1364 23.6364C27.9676 23.8052 27.7387 23.9 27.5 23.9H23.2058L22.3845 28.4109L22.3844 28.4109L22.2369 28.3841C22.2055 28.5567 22.1146 28.7129 21.98 28.8255C21.8453 28.938 21.6755 28.9998 21.5 29L24.6235 16.1ZM24.6235 16.1L25.3854 11.9109L25.3854 11.9109L25.3858 11.9084C25.4241 11.6755 25.3693 11.4368 25.2333 11.2439C25.0973 11.0509 24.8909 10.9192 24.6586 10.877C24.4264 10.8348 24.1868 10.8855 23.9916 11.0182C23.7964 11.151 23.6612 11.3551 23.6151 11.5866L23.6151 11.5866L23.6146 11.5891L22.7933 16.1H18.6235M24.6235 16.1H18.6235M18.6235 16.1L19.3854 11.9109L19.3854 11.9109L19.3858 11.9084C19.4241 11.6755 19.3693 11.4368 19.2333 11.2439C19.0973 11.0509 18.8909 10.9192 18.6586 10.877C18.4264 10.8348 18.1868 10.8855 17.9916 11.0182C17.7964 11.151 17.6612 11.3551 17.6151 11.5866L17.6151 11.5866L17.6146 11.5891L16.7942 16.1H12.5C12.2613 16.1 12.0324 16.1948 11.8636 16.3636C11.6948 16.5324 11.6 16.7613 11.6 17C11.6 17.2387 11.6948 17.4676 11.8636 17.6364C12.0324 17.8052 12.2613 17.9 12.5 17.9H16.4668L15.7029 22.1H11C10.7613 22.1 10.5324 22.1948 10.3636 22.3636C10.1948 22.5324 10.1 22.7613 10.1 23C10.1 23.2387 10.1948 23.4676 10.3636 23.6364C10.5324 23.8052 10.7613 23.9 11 23.9H15.3765L14.6146 28.0891L14.6146 28.0892C14.572 28.324 14.6243 28.5661 14.7602 28.7623C14.8961 28.9585 15.1043 29.0927 15.3391 29.1354M18.6235 16.1L15.3391 29.1354M15.3391 29.1354C15.3389 29.1354 15.3388 29.1353 15.3386 29.1353L15.3659 28.9878L15.3391 29.1354ZM15.5 29L15.5002 29.15L15.5 29ZM15.5 29C15.6755 28.9998 15.8453 28.938 15.98 28.8255C16.1146 28.7129 16.2055 28.5567 16.2369 28.3841M15.5 29L21.3765 23.9H17.2058L16.3845 28.4109L16.3844 28.4109L16.2369 28.3841M15.5 29L15.5002 29.15L15.5 29ZM16.2369 28.3841L17.0806 23.75L16.2369 28.3841ZM21.3391 29.1354C21.3923 29.1452 21.4462 29.1501 21.5002 29.15L20.7622 28.1159C20.7267 28.3116 20.7703 28.5134 20.8835 28.6769C20.9967 28.8404 21.1703 28.9522 21.3659 28.9878L21.3386 29.1353C21.3388 29.1353 21.339 29.1354 21.3391 29.1354ZM18.2971 17.9H22.4668L21.7029 22.1H17.5332L18.2971 17.9Z" fill="#34355B" stroke="#34355B" stroke-width="0.3"/>
<rect x="1" y="1" width="38" height="38" rx="7" stroke="#34355B" stroke-width="2"/>
<rect x="1" y="1" width="38" height="38" rx="7" stroke="#34355B" stroke-width="2"/>
<defs>
<linearGradient id="paint0_linear_2233_4" x1="40" y1="40" x2="-7.8644" y2="24.8554" gradientUnits="userSpaceOnUse">
<stop stop-color="#C2E9FB"/>
<stop offset="1" stop-color="#A1C4FD"/>
</linearGradient>
</defs>
</svg>
