<svg width="40" height="41" viewBox="0 0 40 41" fill="none" xmlns="http://www.w3.org/2000/svg">
<rect y="0.5" width="40" height="40" rx="8" fill="url(#paint0_linear_502_93)"/>
<g clip-path="url(#clip0_502_93)">
<path d="M20.6811 28.2838C20.2919 28.5822 21.6021 29.6849 18.3848 28.5238C15.174 27.3627 13.8638 23.3151 13.2086 21.0838C12.5535 18.8524 14.3113 15.8168 15.4724 14.9541C16.6335 14.0914 18.774 13.7346 19.014 13.7022C19.2475 13.6762 19.5784 13.527 20.1427 12.9627C20.707 12.3984 22.4908 11.8016 23.7751 12.0676C25.0529 12.3335 28.2378 15.3692 30.3459 19.6568C32.4605 23.9378 29.6065 27.0059 29.1005 27.0059C28.5946 27.0059 25.6756 25.0405 25.4097 24.8005C25.1438 24.567 24.4886 24.5022 24.0086 24.327C23.5351 24.1454 22.4324 22.8416 22.4324 22.8416C22.614 26.1108 21.0638 27.9854 20.6811 28.2838V28.2838Z" fill="#EAB363"/>
<path d="M19.4292 28.6989C18.7416 28.6989 16.9578 27.4535 15.0573 24.833C13.1503 22.2124 13.6886 18.554 13.6886 18.554C13.3319 24.1195 19.8184 28.433 19.8184 28.433C19.8184 28.433 20.1103 28.6989 19.4292 28.6989V28.6989Z" fill="#8C5E28"/>
<path d="M24.0087 24.327C23.5351 24.1454 22.4324 22.8416 22.4324 22.8416C22.4324 22.8416 21.9265 17.4838 22.4324 15.1357C22.9384 12.7811 23.2043 12.7551 23.5611 13.527C23.8854 14.2211 23.9892 21.7389 25.1114 24.6384C24.7935 24.5216 24.3524 24.4568 24.0087 24.327Z" fill="#E2942D"/>
<path d="M18.9232 13.8838C18.9232 13.8838 17.9113 14.7141 17.7038 14.7789C17.4962 14.8373 15.1416 16.0568 14.493 17.3346C13.8378 18.6124 14.253 16.6535 14.934 15.966C15.6216 15.2849 17.3146 14.0589 18.9232 13.8838V13.8838Z" fill="#8C5E28"/>
<path d="M18.2811 27.2265C14.2724 29.3994 9.52433 29.4189 9.52433 29.4189C10.0562 28.0762 8.51892 25.7994 8.51892 25.7994C12.9362 26.2665 15.8422 24.6384 15.8422 24.6384C15.9459 24.7746 18.2811 27.2265 18.2811 27.2265Z" fill="#E6E6E6"/>
<path opacity="0.1" d="M18.2811 27.2265C17.0552 27.8881 15.7643 28.3486 14.5579 28.673C14.1168 27.0967 13.0919 26.2016 12.2681 25.7216C14.506 25.3843 15.8422 24.6384 15.8422 24.6384C15.946 24.7746 18.2811 27.2265 18.2811 27.2265V27.2265Z" fill="black"/>
<path d="M20.6552 14.4286C20.026 15.6286 18.3524 14.9022 18.7287 14.8827C19.1049 14.8632 20.2335 13.313 20.986 12.794C21.7449 12.2751 23.7752 12.0676 24.0022 12.3919C24.2357 12.7162 23.587 12.7681 22.8346 12.794C22.0757 12.8135 21.5762 16.6211 21.5762 16.6211C20.1946 15.9076 21.2843 13.2286 20.6552 14.4286V14.4286Z" fill="#F4CD9A"/>
</g>
<defs>
<linearGradient id="paint0_linear_502_93" x1="0" y1="40.5" x2="40" y2="0.5" gradientUnits="userSpaceOnUse">
<stop stop-color="#190361"/>
<stop offset="1" stop-color="#BB00FF"/>
</linearGradient>
<clipPath id="clip0_502_93">
<rect width="24" height="18.1622" fill="white" transform="translate(8 11.4189)"/>
</clipPath>
</defs>
</svg>
