<svg width="64" height="64" viewBox="0 0 64 64" fill="none" xmlns="http://www.w3.org/2000/svg">
<g clip-path="url(#clip0_221_8634)">
<rect width="64" height="64" rx="16" fill="#161122"/>
<path fill-rule="evenodd" clip-rule="evenodd" d="M26.726 32.5407L12 42.1217V22.8982L26.726 32.4781C26.7279 32.4862 26.7294 32.4968 26.7294 32.5094C26.7294 32.522 26.7279 32.5326 26.726 32.5407Z" fill="#FFCC00"/>
<path fill-rule="evenodd" clip-rule="evenodd" d="M28.3201 36.7771H39.8679C47.956 36.7771 52 33.9246 52 28.2194V27.6695C52 22.0331 47.956 19.2148 39.8679 19.2148H18.5594V24.2367L28.1484 30.4747C28.4655 30.6908 28.7268 30.9908 28.908 31.3467C29.0892 31.7025 29.1842 32.1026 29.1842 32.5093C29.1842 32.916 29.0892 33.3161 28.908 33.672C28.7268 34.0278 28.4655 34.3279 28.1484 34.5439L18.5594 40.7826V44.785H28.3201V36.7771ZM28.3201 30.3846V25.6074H38.6994C40.8531 25.6074 41.93 26.3864 41.93 27.9444V28.0475C41.93 29.6056 40.8531 30.3846 38.6994 30.3846H28.3201Z" fill="#F2F2F3"/>
</g>
<defs>
<clipPath id="clip0_221_8634">
<rect width="64" height="64" fill="white"/>
</clipPath>
</defs>
</svg>
