<svg width="40" height="40" viewBox="0 0 40 40" fill="none" xmlns="http://www.w3.org/2000/svg">
<path d="M26 13.3765V16.5C26 17.0523 25.5523 17.5 25 17.5C24.4477 17.5 24 17.0523 24 16.5V13.1181C24 10.0305 22.2043 8.5 20 8.5C17.7957 8.5 16 10.0305 16 13.1181V20.5C16 21.0523 15.5523 21.5 15 21.5C14.4477 21.5 14 21.0523 14 20.5V13.3765C14 8.73885 16.9116 6.5 20 6.5C23.0884 6.5 26 8.73885 26 13.3765Z" fill="#7D7986"/>
<rect width="16" height="14" rx="2" transform="matrix(1 0 0 -1 12 33.5)" fill="#7D7986"/>
</svg>
