<svg width="16" height="16" viewBox="0 0 16 16" fill="none" xmlns="http://www.w3.org/2000/svg">
<g clip-path="url(#clip0_325_1592)">
<path fill-rule="evenodd" clip-rule="evenodd" d="M2.5 7C2.5 4.51472 4.51472 2.5 7 2.5C9.48528 2.5 11.5 4.51472 11.5 7C11.5 9.48528 9.48528 11.5 7 11.5C4.51472 11.5 2.5 9.48528 2.5 7ZM7 1.5C3.96243 1.5 1.5 3.96243 1.5 7C1.5 10.0376 3.96243 12.5 7 12.5C8.33874 12.5 9.56577 12.0217 10.5195 11.2266L13.6464 14.3536C13.8417 14.5488 14.1583 14.5488 14.3535 14.3536C14.5488 14.1583 14.5488 13.8417 14.3535 13.6465L11.2266 10.5195C12.0217 9.56579 12.5 8.33876 12.5 7C12.5 3.96243 10.0376 1.5 7 1.5Z" fill="#7D7986"/>
</g>
<defs>
<clipPath id="clip0_325_1592">
<rect width="16" height="16" fill="white"/>
</clipPath>
</defs>
</svg>
