<svg width="16" height="16" viewBox="0 0 16 16" fill="none" xmlns="http://www.w3.org/2000/svg">
<g clip-path="url(#clip0_323_1587)">
<path fill-rule="evenodd" clip-rule="evenodd" d="M2.75 6.79999C2.75 4.59181 4.62364 2.75 7 2.75C9.37636 2.75 11.25 4.59181 11.25 6.79999C11.25 9.00818 9.37636 10.85 7 10.85C4.62364 10.85 2.75 9.00818 2.75 6.79999ZM7 1.25C3.85351 1.25 1.25 3.70625 1.25 6.79999C1.25 9.89373 3.85351 12.35 7 12.35C8.3114 12.35 9.52849 11.9233 10.5021 11.2016L13.4806 14.061C13.7794 14.3479 14.2542 14.3382 14.5411 14.0394C14.8279 13.7406 14.8182 13.2658 14.5194 12.979L11.5801 10.1572C12.3127 9.22864 12.75 8.06785 12.75 6.79999C12.75 3.70625 10.1465 1.25 7 1.25Z" fill="#F2F2F3"/>
</g>
<defs>
<clipPath id="clip0_323_1587">
<rect width="16" height="16" fill="white"/>
</clipPath>
</defs>
</svg>
