<svg width="17" height="17" viewBox="0 0 17 17" fill="none" xmlns="http://www.w3.org/2000/svg">
<rect x="0.511688" y="0.184174" width="16" height="16" rx="2" fill="#89C5CC"/>
<path d="M11.3065 4.47739V6.47149H5.54233V4.47739H11.3065ZM6.85096 2.18417H9.50561V11.1078C9.50561 11.3529 9.54299 11.544 9.61777 11.6811C9.69255 11.814 9.79641 11.9075 9.92935 11.9615C10.0664 12.0155 10.2243 12.0425 10.403 12.0425C10.5276 12.0425 10.6522 12.0321 10.7768 12.0114C10.9015 11.9864 10.997 11.9677 11.0635 11.9553L11.481 13.9307C11.3481 13.9722 11.1611 14.02 10.9202 14.074C10.6792 14.1322 10.3863 14.1675 10.0415 14.1799C9.40175 14.2049 8.8409 14.1197 8.359 13.9244C7.88124 13.7292 7.50943 13.4259 7.24355 13.0146C6.97767 12.6034 6.8468 12.0841 6.85096 11.4567V2.18417Z" fill="white"/>
</svg>
