<svg width="16" height="16" viewBox="0 0 16 16" fill="none" xmlns="http://www.w3.org/2000/svg">
<path d="M4.15685 13.7499C3.96498 13.7496 3.77651 13.6993 3.60997 13.604C3.23497 13.3915 3.00185 12.979 3.00185 12.5312V3.46868C3.00185 3.01962 3.23497 2.60837 3.60997 2.39587C3.78047 2.29788 3.97416 2.24749 4.1708 2.24996C4.36744 2.25244 4.5598 2.30769 4.72778 2.40993L12.4731 7.04618C12.6345 7.1474 12.7676 7.28795 12.8598 7.45466C12.9521 7.62137 13.0005 7.80878 13.0005 7.99931C13.0005 8.18984 12.9521 8.37724 12.8598 8.54395C12.7676 8.71066 12.6345 8.85122 12.4731 8.95243L4.72653 13.5899C4.55463 13.6939 4.35773 13.7492 4.15685 13.7499V13.7499Z" fill="#F2F2F3"/>
</svg>
