<svg width="24" height="24" viewBox="0 0 24 24" fill="none" xmlns="http://www.w3.org/2000/svg">
<g clip-path="url(#clip0_434_1274)">
<path fill-rule="evenodd" clip-rule="evenodd" d="M4 10.2C4 6.81391 6.87128 4 10.5 4C14.1287 4 17 6.81391 17 10.2C17 13.5861 14.1287 16.4 10.5 16.4C6.87128 16.4 4 13.5861 4 10.2ZM10.5 2C5.84445 2 2 5.63318 2 10.2C2 14.7668 5.84445 18.4 10.5 18.4C12.4784 18.4 14.3104 17.7438 15.7631 16.6388L20.3075 21.0014C20.7059 21.3839 21.3389 21.3709 21.7214 20.9725C22.1039 20.5741 22.091 19.9411 21.6926 19.5586L17.2011 15.2468C18.3262 13.8602 19 12.1119 19 10.2C19 5.63318 15.1556 2 10.5 2Z" fill="#F2F2F3"/>
</g>
<defs>
<clipPath id="clip0_434_1274">
<rect width="24" height="24" fill="white"/>
</clipPath>
</defs>
</svg>
