<svg width="32" height="32" viewBox="0 0 32 32" fill="none" xmlns="http://www.w3.org/2000/svg">
<path d="M6.74 4.32751C6.65218 4.22852 6.54559 4.14794 6.4264 4.09045C6.30721 4.03296 6.1778 3.99969 6.04566 3.99258C5.91352 3.98548 5.78128 4.00466 5.65661 4.04904C5.53194 4.09341 5.41732 4.16209 5.31939 4.25109C5.22146 4.34009 5.14216 4.44764 5.0861 4.56751C5.03004 4.68738 4.99833 4.81718 4.99281 4.9494C4.98728 5.08161 5.00806 5.21361 5.05392 5.33774C5.09979 5.46187 5.16983 5.57566 5.26 5.67251L9.19375 10H4C3.46957 10 2.96086 10.2107 2.58579 10.5858C2.21071 10.9609 2 11.4696 2 12V20C2 20.5304 2.21071 21.0392 2.58579 21.4142C2.96086 21.7893 3.46957 22 4 22H9.65625L18.3862 28.7888C18.534 28.9036 18.711 28.9747 18.8971 28.994C19.0832 29.0132 19.271 28.9799 19.4391 28.8977C19.6072 28.8155 19.7489 28.6878 19.8481 28.5291C19.9472 28.3705 19.9999 28.1871 20 28V21.8863L25.26 27.6725C25.3478 27.7715 25.4544 27.8521 25.5736 27.9096C25.6928 27.9671 25.8222 28.0003 25.9543 28.0074C26.0865 28.0146 26.2187 27.9954 26.3434 27.951C26.4681 27.9066 26.5827 27.8379 26.6806 27.7489C26.7785 27.6599 26.8578 27.5524 26.9139 27.4325C26.97 27.3127 27.0017 27.1828 27.0072 27.0506C27.0127 26.9184 26.9919 26.7864 26.9461 26.6623C26.9002 26.5382 26.8302 26.4244 26.74 26.3275L6.74 4.32751ZM18.26 14.0263C18.3958 14.1756 18.5735 14.2804 18.7699 14.3268C18.9664 14.3733 19.1722 14.3592 19.3605 14.2864C19.5488 14.2137 19.7106 14.0856 19.8247 13.9192C19.9389 13.7527 20 13.5556 20 13.3538V4.00001C19.9999 3.8129 19.9472 3.62957 19.8481 3.47088C19.7489 3.31219 19.6072 3.1845 19.4391 3.10234C19.271 3.02017 19.0832 2.98682 18.8971 3.00607C18.711 3.02533 18.534 3.09642 18.3862 3.21126L13.405 7.08626C13.2962 7.17093 13.2062 7.27717 13.1404 7.3983C13.0746 7.51944 13.0346 7.65287 13.0229 7.7902C13.0112 7.92753 13.0279 8.06581 13.0722 8.19634C13.1164 8.32688 13.1872 8.44687 13.28 8.54876L18.26 14.0263Z" fill="#7D7986"/>
<path d="M22.2929 14.2929C22.4804 14.1054 22.7348 14 23 14C23.2652 14 23.5196 14.1054 23.7071 14.2929C23.8946 14.4804 24 14.7348 24 15V17C24 17.2652 23.8946 17.5196 23.7071 17.7071C23.5196 17.8946 23.2652 18 23 18C22.7348 18 22.4804 17.8946 22.2929 17.7071C22.1054 17.5196 22 17.2652 22 17V15C22 14.7348 22.1054 14.4804 22.2929 14.2929Z" fill="#7D7986"/>
<path d="M25.2929 12.2929C25.4804 12.1054 25.7348 12 26 12C26.2652 12 26.5196 12.1054 26.7071 12.2929C26.8946 12.4804 27 12.7348 27 13V19C27 19.2652 26.8946 19.5196 26.7071 19.7071C26.5196 19.8946 26.2652 20 26 20C25.7348 20 25.4804 19.8946 25.2929 19.7071C25.1054 19.5196 25 19.2652 25 19V13C25 12.7348 25.1054 12.4804 25.2929 12.2929Z" fill="#7D7986"/>
<path d="M28.2929 10.2929C28.4804 10.1054 28.7348 10 29 10C29.2652 10 29.5196 10.1054 29.7071 10.2929C29.8946 10.4804 30 10.7348 30 11V21C30 21.2652 29.8946 21.5196 29.7071 21.7071C29.5196 21.8946 29.2652 22 29 22C28.7348 22 28.4804 21.8946 28.2929 21.7071C28.1054 21.5196 28 21.2652 28 21V11C28 10.7348 28.1054 10.4804 28.2929 10.2929Z" fill="#7D7986"/>
</svg>
