<svg width="32" height="32" viewBox="0 0 32 32" fill="none" xmlns="http://www.w3.org/2000/svg">
<path d="M20 4.00001V28C19.9999 28.1871 19.9472 28.3705 19.8481 28.5291C19.7489 28.6878 19.6072 28.8155 19.4391 28.8977C19.271 28.9799 19.0832 29.0132 18.8971 28.994C18.711 28.9747 18.534 28.9036 18.3862 28.7888L9.65625 22H4C3.46957 22 2.96086 21.7893 2.58579 21.4142C2.21071 21.0392 2 20.5304 2 20V12C2 11.4696 2.21071 10.9609 2.58579 10.5858C2.96086 10.2107 3.46957 10 4 10H9.65625L18.3862 3.21126C18.534 3.09642 18.711 3.02533 18.8971 3.00607C19.0832 2.98682 19.271 3.02017 19.4391 3.10234C19.6072 3.1845 19.7489 3.31219 19.8481 3.47088C19.9472 3.62957 19.9999 3.8129 20 4.00001Z" fill="#7D7986"/>
<path d="M22.2929 14.2929C22.4804 14.1054 22.7348 14 23 14C23.2652 14 23.5196 14.1054 23.7071 14.2929C23.8946 14.4804 24 14.7348 24 15V17C24 17.2652 23.8946 17.5196 23.7071 17.7071C23.5196 17.8946 23.2652 18 23 18C22.7348 18 22.4804 17.8946 22.2929 17.7071C22.1054 17.5196 22 17.2652 22 17V15C22 14.7348 22.1054 14.4804 22.2929 14.2929Z" fill="#7D7986"/>
<path d="M25.2929 12.2929C25.4804 12.1054 25.7348 12 26 12C26.2652 12 26.5196 12.1054 26.7071 12.2929C26.8946 12.4804 27 12.7348 27 13V19C27 19.2652 26.8946 19.5196 26.7071 19.7071C26.5196 19.8946 26.2652 20 26 20C25.7348 20 25.4804 19.8946 25.2929 19.7071C25.1054 19.5196 25 19.2652 25 19V13C25 12.7348 25.1054 12.4804 25.2929 12.2929Z" fill="#7D7986"/>
<path d="M28.2929 10.2929C28.4804 10.1054 28.7348 10 29 10C29.2652 10 29.5196 10.1054 29.7071 10.2929C29.8946 10.4804 30 10.7348 30 11V21C30 21.2652 29.8946 21.5196 29.7071 21.7071C29.5196 21.8946 29.2652 22 29 22C28.7348 22 28.4804 21.8946 28.2929 21.7071C28.1054 21.5196 28 21.2652 28 21V11C28 10.7348 28.1054 10.4804 28.2929 10.2929Z" fill="#7D7986"/>
</svg>
