<svg width="32" height="32" viewBox="0 0 32 32" fill="none" xmlns="http://www.w3.org/2000/svg">
<g clip-path="url(#clip0_450_1293)">
<path d="M6.88886 14.8371C7.21776 14.6173 7.60444 14.5 8 14.5C8.53043 14.5 9.03914 14.7107 9.41421 15.0858C9.78929 15.4609 10 15.9696 10 16.5C10 16.8956 9.8827 17.2822 9.66294 17.6111C9.44318 17.94 9.13082 18.1964 8.76537 18.3478C8.39992 18.4991 7.99778 18.5387 7.60982 18.4616C7.22186 18.3844 6.86549 18.1939 6.58579 17.9142C6.30608 17.6345 6.1156 17.2781 6.03843 16.8902C5.96126 16.5022 6.00087 16.1001 6.15224 15.7346C6.30362 15.3692 6.55996 15.0568 6.88886 14.8371Z" fill="#F2F2F3"/>
<path d="M14.8889 14.8371C15.2178 14.6173 15.6044 14.5 16 14.5C16.5304 14.5 17.0391 14.7107 17.4142 15.0858C17.7893 15.4609 18 15.9696 18 16.5C18 16.8956 17.8827 17.2822 17.6629 17.6111C17.4432 17.94 17.1308 18.1964 16.7654 18.3478C16.3999 18.4991 15.9978 18.5387 15.6098 18.4616C15.2219 18.3844 14.8655 18.1939 14.5858 17.9142C14.3061 17.6345 14.1156 17.2781 14.0384 16.8902C13.9613 16.5022 14.0009 16.1001 14.1522 15.7346C14.3036 15.3692 14.56 15.0568 14.8889 14.8371Z" fill="#F2F2F3"/>
<path d="M22.8889 14.8371C23.2178 14.6173 23.6044 14.5 24 14.5C24.5304 14.5 25.0391 14.7107 25.4142 15.0858C25.7893 15.4609 26 15.9696 26 16.5C26 16.8956 25.8827 17.2822 25.6629 17.6111C25.4432 17.94 25.1308 18.1964 24.7654 18.3478C24.3999 18.4991 23.9978 18.5387 23.6098 18.4616C23.2219 18.3844 22.8655 18.1939 22.5858 17.9142C22.3061 17.6345 22.1156 17.2781 22.0384 16.8902C21.9613 16.5022 22.0009 16.1001 22.1522 15.7346C22.3036 15.3692 22.56 15.0568 22.8889 14.8371Z" fill="#F2F2F3"/>
</g>
<defs>
<clipPath id="clip0_450_1293">
<rect width="32" height="32" fill="white"/>
</clipPath>
</defs>
</svg>
