<svg width="24" height="24" viewBox="0 0 24 24" fill="none" xmlns="http://www.w3.org/2000/svg">
<rect x="0.75" y="0.75" width="22.5" height="22.5" rx="3.25" fill="#090039" stroke="#7158EF" stroke-width="1.5"/>
<path d="M18 8.5H17V8C17 7.60218 16.842 7.22064 16.5607 6.93934C16.2794 6.65804 15.8978 6.5 15.5 6.5H6.5C6.10218 6.5 5.72064 6.65804 5.43934 6.93934C5.15804 7.22064 5 7.60218 5 8V14C5 14.3978 5.15804 14.7794 5.43934 15.0607C5.72064 15.342 6.10218 15.5 6.5 15.5H13.5V16C13.5 16.3978 13.658 16.7794 13.9393 17.0607C14.2206 17.342 14.6022 17.5 15 17.5H18C18.3978 17.5 18.7794 17.342 19.0607 17.0607C19.342 16.7794 19.5 16.3978 19.5 16V10C19.5 9.60218 19.342 9.22064 19.0607 8.93934C18.7794 8.65804 18.3978 8.5 18 8.5ZM6.5 14.5C6.36739 14.5 6.24021 14.4473 6.14645 14.3536C6.05268 14.2598 6 14.1326 6 14V8C6 7.86739 6.05268 7.74021 6.14645 7.64645C6.24021 7.55268 6.36739 7.5 6.5 7.5H15.5C15.6326 7.5 15.7598 7.55268 15.8536 7.64645C15.9473 7.74021 16 7.86739 16 8V8.5H15C14.6022 8.5 14.2206 8.65804 13.9393 8.93934C13.658 9.22064 13.5 9.60218 13.5 10V14.5H6.5ZM18.5 16C18.5 16.1326 18.4473 16.2598 18.3536 16.3536C18.2598 16.4473 18.1326 16.5 18 16.5H15C14.8674 16.5 14.7402 16.4473 14.6464 16.3536C14.5527 16.2598 14.5 16.1326 14.5 16V10C14.5 9.86739 14.5527 9.74021 14.6464 9.64645C14.7402 9.55268 14.8674 9.5 15 9.5H18C18.1326 9.5 18.2598 9.55268 18.3536 9.64645C18.4473 9.74021 18.5 9.86739 18.5 10V16ZM12.5 17C12.5 17.1326 12.4473 17.2598 12.3536 17.3536C12.2598 17.4473 12.1326 17.5 12 17.5H9.5C9.36739 17.5 9.24021 17.4473 9.14645 17.3536C9.05268 17.2598 9 17.1326 9 17C9 16.8674 9.05268 16.7402 9.14645 16.6464C9.24021 16.5527 9.36739 16.5 9.5 16.5H12C12.1326 16.5 12.2598 16.5527 12.3536 16.6464C12.4473 16.7402 12.5 16.8674 12.5 17ZM17.5 11C17.5 11.1326 17.4473 11.2598 17.3536 11.3536C17.2598 11.4473 17.1326 11.5 17 11.5H16C15.8674 11.5 15.7402 11.4473 15.6464 11.3536C15.5527 11.2598 15.5 11.1326 15.5 11C15.5 10.8674 15.5527 10.7402 15.6464 10.6464C15.7402 10.5527 15.8674 10.5 16 10.5H17C17.1326 10.5 17.2598 10.5527 17.3536 10.6464C17.4473 10.7402 17.5 10.8674 17.5 11Z" fill="#ECE9FD"/>
</svg>
