<svg width="25" height="25" viewBox="0 0 25 25" fill="none" xmlns="http://www.w3.org/2000/svg">
<rect x="0.5" y="0.693115" width="24" height="24" rx="4" fill="#2C2B3D"/>
<path d="M12.3894 12.8637C10.0934 12.8637 8.22546 11.1096 8.22546 8.95342C8.22546 6.79732 10.0934 5.04321 12.3894 5.04321C14.6854 5.04321 16.5533 6.79732 16.5533 8.95342C16.5533 11.1096 14.6854 12.8637 12.3894 12.8637ZM12.3894 6.03123C10.7097 6.03123 9.3431 7.34211 9.3431 8.95342C9.3431 10.5647 10.7097 11.8757 12.3894 11.8757C14.0691 11.8757 15.4357 10.5647 15.4357 8.95342C15.4357 7.34211 14.0691 6.03123 12.3894 6.03123Z" fill="#00BFA6"/>
<path d="M12.3986 12.7705C10.0975 12.7705 8.22546 10.9588 8.22546 8.73177C8.22546 6.50485 10.0975 4.69312 12.3986 4.69312C14.6997 4.69312 16.5717 6.50485 16.5717 8.73177C16.5717 10.9588 14.6997 12.7705 12.3986 12.7705ZM12.3986 5.71358C10.7152 5.71358 9.34557 7.06752 9.34557 8.73177C9.34557 10.396 10.7152 11.75 12.3986 11.75C14.082 11.75 15.4516 10.396 15.4516 8.73177C15.4516 7.06752 14.082 5.71358 12.3986 5.71358Z" fill="#00BFA6"/>
<path d="M16.4518 20.6932H8.54816C7.85119 20.6925 7.18299 20.4399 6.69015 19.9909C6.19732 19.5419 5.9201 18.9332 5.91931 18.2982V11.2353C5.91985 10.8006 6.10964 10.3838 6.44704 10.0764C6.78445 9.76899 7.24191 9.59608 7.71908 9.59558H17.2808C17.758 9.59608 18.2155 9.76899 18.5529 10.0764C18.8903 10.3838 19.0801 10.8006 19.0806 11.2353V18.2982C19.0798 18.9332 18.8026 19.5419 18.3098 19.9909C17.8169 20.4399 17.1487 20.6925 16.4518 20.6932V20.6932Z" fill="white"/>
<path d="M13.9963 14.268C13.9965 14.0186 13.9238 13.7736 13.7855 13.5583C13.6472 13.343 13.4485 13.1652 13.2097 13.0432C12.9709 12.9211 12.7008 12.8593 12.427 12.864C12.1533 12.8687 11.8859 12.9398 11.6523 13.07C11.4188 13.2002 11.2276 13.3847 11.0984 13.6046C10.9691 13.8245 10.9066 14.0718 10.9172 14.3211C10.9277 14.5703 11.011 14.8125 11.1585 15.0226C11.306 15.2328 11.5122 15.4034 11.7561 15.5167V17.7121H13.1562V15.5167C13.409 15.3994 13.6212 15.2206 13.7695 15.0002C13.9178 14.7799 13.9962 14.5265 13.9963 14.268V14.268Z" fill="#2F2E41"/>
<path d="M13.9963 14.268C13.9965 14.0186 13.9238 13.7736 13.7855 13.5583C13.6472 13.343 13.4485 13.1652 13.2097 13.0432C12.9709 12.9211 12.7008 12.8593 12.427 12.864C12.1533 12.8687 11.8859 12.9398 11.6523 13.07C11.4188 13.2002 11.2276 13.3847 11.0984 13.6046C10.9691 13.8245 10.9066 14.0718 10.9172 14.3211C10.9277 14.5703 11.011 14.8125 11.1585 15.0226C11.306 15.2328 11.5122 15.4034 11.7561 15.5167V17.7121H13.1562V15.5167C13.409 15.3994 13.6212 15.2206 13.7695 15.0002C13.9178 14.7799 13.9962 14.5265 13.9963 14.268V14.268Z" fill="#2F2E41"/>
</svg>
