<svg width="40" height="40" viewBox="0 0 40 40" fill="none" xmlns="http://www.w3.org/2000/svg">
<rect width="40" height="40" rx="8" fill="white"/>
<path d="M33.2629 22.2324H35.9818C35.9273 23.1236 35.6818 23.9147 35.2453 24.6058C34.8148 25.297 34.2116 25.8365 33.4357 26.2245C32.6657 26.6125 31.7382 26.8065 30.6531 26.8065C29.8043 26.8065 29.0435 26.661 28.3706 26.37C27.6977 26.0729 27.1217 25.6486 26.6428 25.0969C26.17 24.5452 25.8093 23.8784 25.5607 23.0963C25.3121 22.3143 25.1879 21.4383 25.1879 20.4683V19.5499C25.1879 18.5799 25.3152 17.7039 25.5698 16.9218C25.8305 16.1337 26.2003 15.4639 26.6792 14.9122C27.1642 14.3605 27.7431 13.9361 28.4161 13.6391C29.089 13.342 29.8407 13.1935 30.6712 13.1935C31.7746 13.1935 32.7052 13.3936 33.4629 13.7937C34.2268 14.1938 34.8179 14.7455 35.2362 15.4487C35.6605 16.1519 35.9152 16.9522 36 17.8494H33.272C33.2417 17.3159 33.1356 16.8643 32.9537 16.4944C32.7718 16.1186 32.496 15.8367 32.1262 15.6488C31.7625 15.4548 31.2775 15.3578 30.6712 15.3578C30.2166 15.3578 29.8195 15.4426 29.48 15.6124C29.1405 15.7821 28.8556 16.0398 28.6252 16.3853C28.3948 16.7309 28.2221 17.1674 28.1069 17.6948C27.9978 18.2162 27.9432 18.8284 27.9432 19.5317V20.4683C27.9432 21.1533 27.9947 21.7566 28.0978 22.2779C28.2008 22.7932 28.3585 23.2297 28.5706 23.5874C28.7889 23.939 29.0678 24.2057 29.4072 24.3876C29.7528 24.5634 30.1681 24.6513 30.6531 24.6513C31.2229 24.6513 31.6927 24.5604 32.0625 24.3785C32.4323 24.1966 32.7142 23.9269 32.9082 23.5692C33.1083 23.2115 33.2265 22.7659 33.2629 22.2324Z" fill="#040924"/>
<path d="M10.5201 13.3845H12.8298L16.2308 23.1054L19.6318 13.3845H21.9415L17.1583 26.6246H15.3033L10.5201 13.3845ZM9.27429 13.3845H11.5749L11.9932 22.8599V26.6246H9.27429V13.3845ZM20.8867 13.3845H23.1964V26.6246H20.4684V22.8599L20.8867 13.3845Z" fill="#040924"/>
<path d="M6.71895 13.3845V26.6246H4V13.3845H6.71895Z" fill="#040924"/>
</svg>
