<svg width="24" height="24" viewBox="0 0 24 24" fill="none" xmlns="http://www.w3.org/2000/svg">
<rect x="0.5" y="0.5" width="23" height="23" rx="3.5" fill="#202024" stroke="white"/>
<path d="M12 14.5C13.1046 14.5 14 13.6046 14 12.5C14 11.3954 13.1046 10.5 12 10.5C10.8954 10.5 10 11.3954 10 12.5C10 13.6046 10.8954 14.5 12 14.5Z" fill="white"/>
<path d="M17.5 8.5H15.6562C15.5625 8.5 15.4462 8.43938 15.3556 8.34375L14.545 7.06437C14.5322 7.04407 14.5179 7.02475 14.5022 7.00656C14.2222 6.68 13.8438 6.5 13.4375 6.5H10.5625C10.1562 6.5 9.77781 6.68 9.49781 7.00656C9.48213 7.02475 9.46782 7.04407 9.455 7.06437L8.64437 8.34562C8.575 8.42125 8.4775 8.50187 8.375 8.50187V8.25187C8.375 8.11927 8.32232 7.99209 8.22855 7.89832C8.13479 7.80455 8.00761 7.75187 7.875 7.75187H7.125C6.99239 7.75187 6.86521 7.80455 6.77145 7.89832C6.67768 7.99209 6.625 8.11927 6.625 8.25187V8.50187H6.5C6.1023 8.50229 5.72101 8.66046 5.4398 8.94167C5.15858 9.22289 5.00041 9.60418 5 10.0019V16C5.00041 16.3977 5.15858 16.779 5.4398 17.0602C5.72101 17.3414 6.1023 17.4996 6.5 17.5H17.5C17.8977 17.4996 18.279 17.3414 18.5602 17.0602C18.8414 16.779 18.9996 16.3977 19 16V10C18.9996 9.6023 18.8414 9.22101 18.5602 8.9398C18.279 8.65858 17.8977 8.50041 17.5 8.5ZM12 15.5C11.4067 15.5 10.8266 15.3241 10.3333 14.9944C9.83994 14.6648 9.45542 14.1962 9.22836 13.6481C9.0013 13.0999 8.94189 12.4967 9.05764 11.9147C9.1734 11.3328 9.45912 10.7982 9.87868 10.3787C10.2982 9.95912 10.8328 9.6734 11.4147 9.55764C11.9967 9.44189 12.5999 9.5013 13.1481 9.72836C13.6962 9.95542 14.1648 10.3399 14.4944 10.8333C14.8241 11.3266 15 11.9067 15 12.5C14.9991 13.2954 14.6827 14.0579 14.1203 14.6203C13.5579 15.1827 12.7954 15.4991 12 15.5Z" fill="white"/>
</svg>
