<svg width="24" height="24" viewBox="0 0 24 24" fill="none" xmlns="http://www.w3.org/2000/svg">
<rect width="24" height="24" rx="4" fill="#FF5374"/>
<path d="M8.07064 18C8.02355 18 8 17.9713 8 17.9138L8.03532 6.06897C8.03532 6.02299 8.05887 6 8.10596 6H10.2605C10.3076 6 10.3488 6.02299 10.3841 6.06897L11.9912 8.34483L13.5982 6.06897C13.6336 6.02299 13.6748 6 13.7219 6H15.894C15.9411 6 15.9647 6.02299 15.9647 6.06897L16 17.9138C16 17.9713 15.9765 18 15.9294 18H13.9338C13.8867 18 13.8631 17.9713 13.8631 17.9138L13.8455 9.12069L11.9912 11.7414L10.1545 9.12069L10.1369 17.9138C10.1369 17.9713 10.1133 18 10.0662 18H8.07064Z" fill="#EFEFEF"/>
</svg>
