<svg width="40" height="31" viewBox="0 0 40 31" fill="none" xmlns="http://www.w3.org/2000/svg">
<g clip-path="url(#clip0_502_108)">
<path d="M21.1352 28.473C20.4865 28.9703 22.6703 30.8081 17.3081 28.873C11.9568 26.9378 9.77299 20.1919 8.6811 16.473C7.58921 12.7541 10.5189 7.6946 12.4541 6.25676C14.3892 4.81892 17.9568 4.22433 18.3568 4.17027C18.746 4.12703 19.2973 3.87838 20.2379 2.93784C21.1784 1.9973 24.1514 1.0027 26.2919 1.44595C28.4216 1.88919 33.7297 6.94865 37.2433 14.0946C40.7676 21.2297 36.0108 26.3432 35.1676 26.3432C34.3243 26.3432 29.4595 23.0676 29.0162 22.6676C28.573 22.2784 27.4811 22.1703 26.6811 21.8784C25.8919 21.5757 24.0541 19.4027 24.0541 19.4027C24.3568 24.8514 21.773 27.9757 21.1352 28.473V28.473Z" fill="#EAB363"/>
<path d="M19.0487 29.1649C17.9027 29.1649 14.9298 27.0892 11.7622 22.7216C8.58381 18.354 9.48111 12.2567 9.48111 12.2567C8.88652 21.5324 19.6973 28.7216 19.6973 28.7216C19.6973 28.7216 20.1838 29.1649 19.0487 29.1649V29.1649Z" fill="#8C5E28"/>
<path d="M26.6811 21.8784C25.8919 21.5757 24.054 19.4027 24.054 19.4027C24.054 19.4027 23.2108 10.473 24.054 6.55945C24.8973 2.63513 25.3405 2.59189 25.9351 3.87837C26.4757 5.03513 26.6486 17.5649 28.5189 22.3973C27.9892 22.2027 27.254 22.0946 26.6811 21.8784Z" fill="#E2942D"/>
<path d="M18.2054 4.47298C18.2054 4.47298 16.5189 5.85676 16.173 5.96487C15.8271 6.06217 11.9027 8.0946 10.8216 10.2243C9.72975 12.3541 10.4216 9.08919 11.5568 7.94325C12.7027 6.80811 15.5243 4.76487 18.2054 4.47298V4.47298Z" fill="#8C5E28"/>
<path d="M17.1351 26.7108C10.4541 30.3324 2.54054 30.3649 2.54054 30.3649C3.42703 28.127 0.864868 24.3324 0.864868 24.3324C8.22703 25.1108 13.0703 22.3973 13.0703 22.3973C13.2432 22.6243 17.1351 26.7108 17.1351 26.7108Z" fill="#E6E6E6"/>
<path opacity="0.1" d="M17.1351 26.7108C15.0919 27.8135 12.9406 28.5811 10.9297 29.1216C10.1946 26.4946 8.4865 25.0027 7.11353 24.2027C10.8433 23.6406 13.0703 22.3973 13.0703 22.3973C13.2433 22.6243 17.1351 26.7108 17.1351 26.7108V26.7108Z" fill="black"/>
<path d="M21.0919 5.38108C20.0432 7.38108 17.254 6.17027 17.8811 6.13784C18.5081 6.10541 20.3892 3.52162 21.6432 2.65676C22.9081 1.79189 26.2919 1.44595 26.6703 1.98649C27.0594 2.52703 25.9784 2.61351 24.7243 2.65676C23.4594 2.68919 22.627 9.03514 22.627 9.03514C20.3243 7.84595 22.1405 3.38108 21.0919 5.38108V5.38108Z" fill="#F4CD9A"/>
</g>
<defs>
<clipPath id="clip0_502_108">
<rect width="40" height="30.2703" fill="white" transform="translate(0 0.364868)"/>
</clipPath>
</defs>
</svg>
